<?xml version="1.0" standalone="no"?>
<!DOCTYPE svg PUBLIC "-//W3C//DTD SVG 20010904//EN"
 "http://www.w3.org/TR/2001/REC-SVG-20010904/DTD/svg10.dtd">
<svg version="1.0" xmlns="http://www.w3.org/2000/svg"
 width="128.000000pt" height="128.000000pt" viewBox="0 0 128.000000 128.000000"
 preserveAspectRatio="xMidYMid meet">
<metadata>
Created by potrace 1.14, written by Peter Selinger 2001-2017
</metadata>
<g transform="translate(0.000000,128.000000) scale(0.100000,-0.100000)"
fill="#000000" stroke="none">
<path d="M561 1236 c-25 -30 -24 -79 3 -115 18 -24 26 -29 26 -18 0 9 -4 17
-9 17 -5 0 -14 14 -20 30 -7 23 -6 38 5 65 15 37 14 44 -5 21z"/>
<path d="M735 1225 c-13 -42 -14 -75 -3 -75 5 0 7 -4 3 -9 -3 -5 5 -17 17 -26
13 -8 22 -18 20 -21 -2 -3 -1 -8 2 -11 3 -4 6 1 6 10 0 9 -9 22 -20 30 -11 8
-18 16 -15 19 3 3 1 16 -4 30 -6 15 -5 31 1 41 5 10 8 23 5 30 -2 6 -8 -2 -12
-18z"/>
<path d="M911 1167 c-11 -24 -21 -56 -21 -72 0 -37 11 -25 16 16 2 18 9 38 15
45 6 8 8 14 4 14 -4 0 -2 7 5 15 7 9 10 18 8 21 -3 3 -15 -15 -27 -39z"/>
<path d="M346 1184 c-4 -10 -1 -14 6 -12 15 5 23 28 10 28 -5 0 -13 -7 -16
-16z"/>
<path d="M335 1150 c-3 -5 -3 -14 0 -20 3 -5 2 -10 -4 -10 -11 0 4 -44 21 -64
8 -10 3 28 -7 43 -3 5 -1 21 5 35 9 25 -2 37 -15 16z"/>
<path d="M459 1045 c-86 -14 -194 -40 -304 -73 -54 -16 -60 -21 -63 -48 -4
-41 52 -324 95 -479 61 -223 101 -292 198 -343 49 -27 52 -27 255 -27 203 0
206 0 255 27 97 51 137 120 198 343 43 155 99 438 95 479 -3 28 -8 31 -98 58
-232 69 -457 92 -631 63z"/>
</g>
</svg>
