<!DOCTYPE svg PUBLIC "-//W3C//DTD SVG 1.1//EN" "https://www.w3.org/Graphics/SVG/1.1/DTD/svg11.dtd"><svg xmlns="http://www.w3.org/2000/svg" id="sfn-svg" class="sfn-workflow-graph" width="293" height="441">
    
    
<g transform="translate(11.999998092651367,19.718568801879883)"><g class="nodes"><g class="node-container" transform="translate(94.2055344581604,18.18181800842285)"><g class="node anchor"><circle class="shape" x="-15.900385856628418" y="-8.181818008422852" r="25.900385856628418"/><text class="label"><tspan xml:space="preserve" text-anchor="middle" alignment-baseline="central">Start</tspan></text></g></g><g class="node-container" transform="translate(94.2055344581604,386.36363410949707)"><g class="node anchor"><circle class="shape" x="-12.166193008422852" y="-8.181818008422852" r="22.16619300842285"/><text class="label"><tspan xml:space="preserve" text-anchor="middle" alignment-baseline="central">End</tspan></text></g></g><g class="node-container" transform="translate(94.2055344581604,79.54545402526855)"><g class="node state Choice NotYetStarted"><rect class="shape" rx="5" ry="5" x="-76.09375" y="-18.18181800842285" width="152.1875" height="36.3636360168457"/><text class="label"><tspan xml:space="preserve" text-anchor="middle" alignment-baseline="central">Simplified Validation</tspan></text></g></g><g class="node-container" transform="translate(164.39288902282715,140.90909004211426)"><g class="node state Task NotYetStarted"><rect class="shape" rx="5" ry="5" x="-100.26988220214844" y="-18.18181800842285" width="200.53976440429688" height="36.3636360168457"/><text class="label"><tspan xml:space="preserve" text-anchor="middle" alignment-baseline="central">Save Contact for compliance</tspan></text></g></g><g class="node-container" transform="translate(24.018179893493652,324.99999809265137)"><g class="node state Pass NotYetStarted"><rect class="shape" rx="5" ry="5" x="-24.018179893493652" y="-18.18181800842285" width="48.036359786987305" height="36.3636360168457"/><text class="label"><tspan xml:space="preserve" text-anchor="middle" alignment-baseline="central">Pass</tspan></text></g></g><g class="node-container" transform="translate(164.39288902282715,202.27272605895996)"><g class="node state Task NotYetStarted"><rect class="shape" rx="5" ry="5" x="-51.40667724609375" y="-18.18181800842285" width="102.8133544921875" height="36.3636360168457"/><text class="label"><tspan xml:space="preserve" text-anchor="middle" alignment-baseline="central">Save Contact</tspan></text></g></g><g class="node-container" transform="translate(164.39288902282715,263.63636207580566)"><g class="node state Pass NotYetStarted"><rect class="shape" rx="5" ry="5" x="-104.12641906738281" y="-18.18181800842285" width="208.25283813476562" height="36.3636360168457"/><text class="label"><tspan xml:space="preserve" text-anchor="middle" alignment-baseline="central">Transform for Welcome Email</tspan></text></g></g><g class="node-container" transform="translate(164.39288902282715,324.99999809265137)"><g class="node state Task NotYetStarted"><rect class="shape" rx="5" ry="5" x="-76.35652923583984" y="-18.18181800842285" width="152.7130584716797" height="36.3636360168457"/><text class="label"><tspan xml:space="preserve" text-anchor="middle" alignment-baseline="central">Send Welcome Email</tspan></text></g></g></g><g class="edges"><g class="edge"><path class="path" marker-end="url(#arrowhead9)" d="M135.7980407052508,97.7272720336914L140.56384875818017,99.81060536702472C145.32965681110957,101.89393870035806,154.86127291696835,106.06060536702473,159.62708096989775,110.22727203369139C164.39288902282715,114.39393870035806,164.39288902282715,118.56060536702473,164.39288902282712,120.64393870035806L164.39288902282715,122.7272720336914" style="fill: none;"/><defs><marker id="arrowhead9" viewBox="0 0 10 10" refX="9" refY="5" markerUnits="strokeWidth" markerWidth="8" markerHeight="6" orient="auto"><path d="M 0 0 L 10 5 L 0 10 z"/></marker></defs></g><g class="edge"><path class="path" marker-end="url(#arrowhead10)" d="M52.61302821107002,97.7272720336914L47.847220158140615,99.81060536702472C43.08141210521123,101.89393870035806,33.54979599935244,106.06060536702473,28.78398794642304,113.2575750350952C24.01817989349365,120.45454470316568,24.01817989349365,130.68181737263996,24.018179893493645,140.90909004211426C24.01817989349365,151.13636271158853,24.01817989349365,161.3636353810628,24.018179893493645,171.5909080505371C24.01817989349365,181.81818072001138,24.01817989349365,192.04545338948566,24.018179893493645,202.27272605895996C24.01817989349365,212.49999872843424,24.01817989349365,222.7272713979085,24.018179893493645,232.95454406738278C24.01817989349365,243.18181673685706,24.01817989349365,253.40908940633136,24.018179893493645,263.63636207580566C24.01817989349365,273.8636347452799,24.01817989349365,284.0909074147542,24.018179893493645,291.2878770828247C24.01817989349365,298.48484675089514,24.01817989349365,302.65151341756183,24.018179893493645,304.73484675089514L24.018179893493652,306.8181800842285" style="fill: none;"/><defs><marker id="arrowhead10" viewBox="0 0 10 10" refX="9" refY="5" markerUnits="strokeWidth" markerWidth="8" markerHeight="6" orient="auto"><path d="M 0 0 L 10 5 L 0 10 z"/></marker></defs></g><g class="edge"><path class="path" marker-end="url(#arrowhead11)" d="M94.2055344581604,44.08220386505127L94.2055344581604,44.87910922368367C94.2055344581604,45.67601458231608,94.2055344581604,47.26982529958089,94.2055344581604,50.150063991546624C94.2055344581604,53.03030268351236,94.2055344581604,57.19696935017903,94.2055344581604,59.28030268351237L94.2055344581604,61.3636360168457" style="fill: none;"/><defs><marker id="arrowhead11" viewBox="0 0 10 10" refX="9" refY="5" markerUnits="strokeWidth" markerWidth="8" markerHeight="6" orient="auto"><path d="M 0 0 L 10 5 L 0 10 z"/></marker></defs></g><g class="edge"><path class="path" marker-end="url(#arrowhead12)" d="M164.39288902282715,159.0909080505371L164.39288902282712,161.17424138387042C164.39288902282715,163.25757471720377,164.39288902282715,167.42424138387042,164.39288902282712,171.5909080505371C164.39288902282715,175.75757471720377,164.39288902282715,179.92424138387042,164.39288902282712,182.00757471720377L164.39288902282715,184.0909080505371" style="fill: none;"/><defs><marker id="arrowhead12" viewBox="0 0 10 10" refX="9" refY="5" markerUnits="strokeWidth" markerWidth="8" markerHeight="6" orient="auto"><path d="M 0 0 L 10 5 L 0 10 z"/></marker></defs></g><g class="edge"><path class="path" marker-end="url(#arrowhead13)" d="M24.018179893493652,343.1818161010742L24.018179893493645,345.26514943440753C24.01817989349365,347.34848276774085,24.01817989349365,351.51514943440753,32.33100701447608,357.2323659713951C40.64383413545851,362.9495825083826,57.26948837742337,370.217348915691,65.5823154984058,373.85123211934524L73.89514261938824,377.48511532299943" style="fill: none;"/><defs><marker id="arrowhead13" viewBox="0 0 10 10" refX="9" refY="5" markerUnits="strokeWidth" markerWidth="8" markerHeight="6" orient="auto"><path d="M 0 0 L 10 5 L 0 10 z"/></marker></defs></g><g class="edge"><path class="path" marker-end="url(#arrowhead14)" d="M164.39288902282715,220.4545440673828L164.39288902282712,222.53787740071613C164.39288902282715,224.62121073404947,164.39288902282715,228.78787740071613,164.39288902282712,232.95454406738278C164.39288902282715,237.12121073404944,164.39288902282715,241.28787740071613,164.39288902282712,243.37121073404947L164.39288902282715,245.4545440673828" style="fill: none;"/><defs><marker id="arrowhead14" viewBox="0 0 10 10" refX="9" refY="5" markerUnits="strokeWidth" markerWidth="8" markerHeight="6" orient="auto"><path d="M 0 0 L 10 5 L 0 10 z"/></marker></defs></g><g class="edge"><path class="path" marker-end="url(#arrowhead15)" d="M164.39288902282715,281.8181800842285L164.39288902282712,283.90151341756183C164.39288902282715,285.98484675089514,164.39288902282715,290.15151341756183,164.39288902282712,294.3181800842285C164.39288902282715,298.48484675089514,164.39288902282715,302.65151341756183,164.39288902282712,304.73484675089514L164.39288902282715,306.8181800842285" style="fill: none;"/><defs><marker id="arrowhead15" viewBox="0 0 10 10" refX="9" refY="5" markerUnits="strokeWidth" markerWidth="8" markerHeight="6" orient="auto"><path d="M 0 0 L 10 5 L 0 10 z"/></marker></defs></g><g class="edge"><path class="path" marker-end="url(#arrowhead16)" d="M164.39288902282715,343.1818161010742L164.39288902282712,345.26514943440753C164.39288902282715,347.34848276774085,164.39288902282715,351.51514943440753,156.0800619018447,357.2323659713951C147.76723478086228,362.9495825083826,131.14158053889741,370.217348915691,122.828753417915,373.85123211934524L114.51592629693256,377.48511532299943" style="fill: none;"/><defs><marker id="arrowhead16" viewBox="0 0 10 10" refX="9" refY="5" markerUnits="strokeWidth" markerWidth="8" markerHeight="6" orient="auto"><path d="M 0 0 L 10 5 L 0 10 z"/></marker></defs></g></g></g><style xmlns="http://www.w3.org/1999/xhtml">.node &gt; .shape {stroke: #555555;stroke-width: 0.6px;fill: #FFFFFF;} path {stroke: #555;background-color: #555;stroke-width: 1px;} .node.state.NotYetStarted &gt; .shape,.node.state.Container &gt; .shape {stroke-dasharray: 5 2;} .node.state.Failed &gt; .shape,rect.legend.Failed {fill: #DE322F;} .node.state.CaughtError &gt; .shape,rect.legend.CaughtError {fill: #FFA500;} .node.state.Succeeded &gt; .shape,rect.legend.Succeeded {fill: #2BD62E;} .node.state.InProgress &gt; .shape,rect.legend.InProgress {fill: #53c9ed;} .node.state.Cancelled &gt; .shape,rect.legend.Cancelled {fill: #dddddd;} .node.anchor &gt; .shape {fill: #FFDA75;} .node.state.hovered:not(.selected):not(.NotYetStarted) &gt; .shape,.node.selected &gt; .shape {stroke: #555555;stroke-width: 2px;} .node.state.Container.Failed &gt; .shape {fill: #EE9592;} .node.state.Container.CaughtError &gt; .shape {fill: #FFD27F;} .node.state.Container.Succeeded &gt; .shape {fill: #91EA9A;} .node.state.Container.InProgress &gt; .shape {fill :#A9E4F7;} .node.state.Container.Cancelled &gt; .shape {fill: #EEEEEE;} marker {fill: #555555;} .node.anchor,.node.state.NotYetStarted {cursor: default;} .node.state {cursor: pointer;} tspan .label {font-weight: normal;font-size: 12px;text-shadow: none;} </style></svg>